<?xml version="1.0" encoding="UTF-8"?>
<svg viewBox="0 0 134 179" xmlns="http://www.w3.org/2000/svg">
<path d="m123.83 158.9l-71.401 19.132c-6.852 1.837-13.88-2.201-15.69-8.954l-35.794-133.59c-1.818-6.784 2.291-13.772 9.111-15.599l71.4-19.132c6.853-1.837 13.881 2.201 15.69 8.954l35.786 133.56c1.817 6.784-2.291 13.771-9.102 15.63zm-34.679-147.04c-0.649-2.423-3.159-3.828-5.574-3.181l-71.4 19.132c-2.415 0.647-3.886 3.119-3.237 5.541l2.216 8.27 80.211-21.49-2.216-8.272zm4.304 16.194l-80.178 21.485 24.082 89.874 80.178-21.482-24.082-89.877zm31.449 117.37l-5.254-19.609-80.179 21.483 5.255 19.611c0.649 2.422 3.159 3.828 5.574 3.179l71.368-19.123c2.447-0.654 3.877-3.15 3.236-5.541zm-32.863 5.275l-16.218 4.345c-2.219 0.594-4.49-0.702-5.079-2.899s0.73-4.455 2.949-5.049l16.219-4.346c2.219-0.593 4.49 0.702 5.078 2.899 0.589 2.196-0.73 4.454-2.949 5.05z" fill="#fff" fill-rule="evenodd"/>
</svg>
