<?xml version="1.0" encoding="UTF-8"?>
<svg width="16.933mm" height="5.644mm" xmlns="http://www.w3.org/2000/svg">
<path d="m44.227 15.072s-0.358-1.639-0.474-2.137c-0.565 0-4.532-6e-3 -4.979-6e-3 -0.151 0.385-0.817 2.143-0.817 2.143h-4.083l5.773-13.074c0.41-0.93 1.104-1.184 2.037-1.184h3.004l3.146 14.258h-3.607zm-2.005-9.181l-0.262-1.23c-0.201 0.537-0.539 1.401-0.518 1.362 0 0-1.229 3.168-1.549 3.987h3.23c-0.156-0.713-0.901-4.119-0.901-4.119zm-8.389-1.811c-0.716-0.288-1.638-0.566-2.91-0.546-1.522 0-2.228 0.634-2.228 1.227-8e-3 0.668 0.824 1.108 2.184 1.77 2.247 1.015 3.284 2.252 3.267 3.873-0.028 2.963-2.684 4.875-6.771 4.875-1.743-0.018-3.422-0.361-4.332-0.76l0.547-3.193 0.501 0.228c1.277 0.532 2.104 0.747 3.661 0.747 1.117 0 2.313-0.438 2.325-1.393 7e-3 -0.625-0.501-1.07-2.016-1.77-1.476-0.683-3.43-1.827-3.405-3.876 0.021-2.773 2.729-4.708 6.571-4.708 1.506 0 2.713 0.31 3.483 0.599l-0.526 3.092-0.351-0.165zm-17.111 10.986l2.431-14.266h3.89l-2.433 14.266h-3.888zm-9.378-8e-3l-3.482-11.897c2.503 1.602 4.635 4.144 5.386 5.914l0.406 1.469 3.808-9.729 4.119-3e-3 -6.123 14.239-4.114 7e-3zm-7.344-14.096l0.05-0.286h6.028c0.813 0.031 1.468 0.29 1.694 1.159l1.311 6.304c-1.288-3.297-4.392-6.04-9.083-7.177z" fill="#fff" fill-rule="evenodd"/>
</svg>
