<svg viewBox="0 0 512 512" xmlns="http://www.w3.org/2000/svg"><path d="M429 0H83C37 0 0 37 0 83v346c0 46 37 83 83 83h346c46 0 83-37 83-83V83c0-46-37-83-83-83z" fill="#b2e59c"/><path d="M287 0H83C37 0 0 37 0 83v346c0 46 37 83 83 83h107c-84-101-53-287 11-360 61-70 80-126 86-152z" fill="#9ad880"/><path d="M233 382c-10 0-20-4-28-11L97 269a41 41 0 0157-60l77 73 125-139a41 41 0 0161 55L264 369a41 41 0 01-31 13z" fill="#fff"/><path d="M154 209a41 41 0 10-57 60l44 41c4-33 11-64 22-92z" fill="#ccf8ff"/></svg>