<svg xmlns="http://www.w3.org/2000/svg" viewBox="0 0 512 512"><path d="M24 368l197 9 197-9-3-19-194-9-192 9-5 19z" fill="#b21800"/><path d="M415 349c-8-43-27-84-43-114 30 8 56 26 71 37l30-24C434 157 321 65 225 80 113 98 48 288 29 349z" fill="#ff3314"/><path d="M443 274c0 24 17 35 34 35s34-15 34-35a35 35 0 00-68 0z" fill="#f7f9f2"/><path d="M477 300c-17 0-30-11-34-26a35 35 0 1068 0c-4 15-18 26-34 26z" fill="#b8b9b4"/><path d="M15 424h412c9 0 16-6 16-25v-16c0-8-7-15-16-15H15c-8 0-15 7-15 15v16c0 19 7 25 15 25z" fill="#f7f9f2"/><path d="M427 415H15c-8 0-15-7-15-16v19c0 9 7 15 15 15h412c9 0 16-6 16-15v-19c0 9-7 16-16 16z" fill="#b8b9b4"/></svg>