<svg viewBox="0 0 512 512" xmlns="http://www.w3.org/2000/svg"><path d="M479 385H33L0 37h512l-33 348z" fill="#93D7F4"/><path fill="#78B9EB" d="M512 37H256v348h223z"/><path d="M278 291c-7 0-13-2-18-7l-71-71a25 25 0 010-35l71-71a25 25 0 0136 0l71 71a25 25 0 010 35l-71 71c-5 5-11 7-18 7z" fill="#FFF8D5"/><path d="M296 107a25 25 0 00-36 0l-4 4v169l4 4a25 25 0 0036 0l71-71a25 25 0 000-35l-71-71z" fill="#FFF1AB"/><path d="M479 385H33L12 163h488l-21 222z" fill="#f90"/><path fill="#FF5D03" d="M256 385h223l21-222H256z"/><path d="M231 385H131c-14 0-25-11-25-25V260c0-14 11-26 25-26h100c14 0 25 12 25 26v100c0 14-11 25-25 25z" fill="#FFC42D"/><path d="M309 385c-4 0-7-1-11-3l-90-42a25 25 0 01-12-34l43-90a25 25 0 0133-12l90 42a25 25 0 0112 34l-42 90c-5 9-14 15-23 15z" fill="#FFE1B4"/><path d="M362 246l-90-42c-5-3-11-3-16-2v160l42 20c4 2 7 3 11 3 9 0 18-6 23-15l42-90a25 25 0 00-12-34z" fill="#FFCB7D"/><path d="M189 178a25 25 0 000 35l71 71a25 25 0 0036 0l71-71a25 25 0 000-35l-15-15H204l-15 15z" fill="#FFC42D"/><path d="M260 284a25 25 0 0036 0l71-71a25 25 0 000-35l-15-15h-96v117l4 4z" fill="#f90"/><path fill="#D1E7F8" d="M482 37l-30 318H60L30 37H0l33 348h446l33-348z"/><path fill="#B3D8F4" d="M452 355H256v30h223l33-348h-30z"/><path d="M425 475H87c-31 0-55-25-55-55v-65h448v65c0 30-24 55-55 55z" fill="#D1E7F8"/><path d="M256 355v120h169c31 0 55-25 55-55v-65H256z" fill="#B3D8F4"/></svg>