<svg width="512" height="512" viewBox="0 0 58 47" xmlns="http://www.w3.org/2000/svg"><g fill-rule="nonzero" fill="none"><path d="M34 5V2c0-1.1.9-2 2-2h15a2 2 0 012 2v4.6zM5 5V2c0-1.1.9-2 2-2h15a2 2 0 012 2v4.6z" fill="#3f5c6c"/><path d="M4.6 15L4 9h21l-.6 6" fill="#3b97d3"/><path d="M25 9H4a2 2 0 01-2-2V5.1a2 2 0 012.1-2l21 1.8c1 0 1.9 1 1.9 2V7a2 2 0 01-2 2z" fill="#547580"/><path d="M4.3 33L2.7 16a1 1 0 011-1h21.6a1 1 0 011 1l-1.6 17" fill="#e4c05c"/><path d="M19.4 20.7c-1.5 1.4-2.5.3-4 1.8s-.4 2.6-1.8 4c-1.5 1.5-2.5.4-4 1.8-1.2-2-.6-5 1.6-7.1 2.4-2.4 5.9-3 7.7-1.1l.5.6z" fill="#a56a43"/><path d="M17.8 27.8c-2.4 2.4-5.9 3-7.7 1.1l-.5-.6c1.5-1.4 2.5-.3 4-1.8s.4-2.6 1.8-4c1.5-1.5 2.5-.4 4-1.8 1.2 2 .6 5-1.6 7.1z" fill="#805333"/><path d="M33.6 15L33 9h21l-.6 6" fill="#3b97d3"/><path d="M54 9H33a2 2 0 01-2-2V5.1a2 2 0 012.1-2l21 1.8c1 0 1.9 1 1.9 2V7a2 2 0 01-2 2z" fill="#547580"/><path d="M33.3 33l-1.6-17a1 1 0 011-1h21.6a1 1 0 011 1l-1.6 17" fill="#e4c05c"/><path d="M48.4 20.7c-1.5 1.4-2.5.3-4 1.8-1.4 1.5-.3 2.6-1.8 4-1.5 1.5-2.5.4-4 1.8-1.2-2-.6-5 1.6-7.1 2.4-2.4 5.9-3 7.7-1.1l.5.6z" fill="#a56a43"/><path d="M46.8 27.8c-2.4 2.4-5.9 3-7.7 1.1l-.5-.6c1.5-1.4 2.5-.3 4-1.8 1.4-1.5.3-2.6 1.8-4 1.5-1.5 2.5-.4 4-1.8 1.2 2 .6 5-1.6 7.1z" fill="#805333"/><path d="M9 37H2a2 2 0 01-2-2c0-.5.2-1 .6-1.4A2 2 0 012 33h54a2 2 0 012 2 2 2 0 01-2 2z" fill="#a56a43"/><g fill="#cb8252"><path d="M15 37h10l-1.7 8.4a2 2 0 01-2 1.6H7.7a2 2 0 01-2-1.6L4 37zM50.4 47H36.6a2 2 0 01-2-1.6L33 37h21l-1.7 8.4a2 2 0 01-2 1.6z"/></g></g></svg>