<svg height="512" width="512" xmlns="http://www.w3.org/2000/svg"><path d="M427 158c-27-29-38-33-47-33-17 0-32 10-38 25h-40v-33c15-6 26-21 26-38 0-9-4-20-34-47L256 0l-38 32c-30 27-34 38-34 47 0 17 11 32 26 38v33h-40c-6-15-21-25-38-25-9 0-20 4-47 33l-32 38 32 39c27 29 38 33 47 33 17 0 32-10 38-26h40v153c-15 6-26 21-26 38 0 9 4 20 34 47l38 32 38-32c30-27 34-38 34-47 0-17-11-32-26-38V242h40c6 16 21 26 38 26 9 0 20-4 47-33l32-39-32-38z" fill="#76e5e2"/><path d="M427 158c-27-29-38-33-47-33-17 0-32 10-38 25h-40v-33c15-6 26-21 26-38 0-9-4-20-34-47L256 0v512l38-32c30-27 34-38 34-47 0-17-11-32-26-38V242h40c6 16 21 26 38 26 9 0 20-4 47-33l32-39-32-38z" fill="#5ed8d3"/></svg>