<svg viewBox="1 0 512 511" xmlns="http://www.w3.org/2000/svg">
  <path d="M98.3 144.3H414v332H98.3zm0 0" fill="#bca98a"/>
  <path d="M152.3 401.6l-48.4 17-48.3-17 7.7-207.5 40.6-17 40.6 17 .5 14.2 6.8 179.6zm0 0" fill="#fff5d7"/>
  <path d="M83.8 194.1v207.5H55.6l7.7-207.5zm0 0" fill="#e0cfaf"/>
  <path d="M144.5 194.1H63.3l-7.7-34 42.7-15.8 54 15.8zm0 0" fill="#fff5d7"/>
  <path d="M83.8 194.1H63.3l-7.7-34h25.3zm0 0" fill="#e0cfaf"/>
  <path d="M165.3 435.7l-50.2 16.5-72.6-16.5 3.5-34h115.8zm0 0" fill="#fff5d7"/>
  <path d="M83.8 401.6l-3.5 34H42.5l3.5-34zm0 0" fill="#e0cfaf"/>
  <path d="M304.4 401.6l-48.4 17-48.4-17 7.8-207.5 40.6-17 40.6 17zm0 0" fill="#fff5d7"/>
  <path d="M235.9 194.1v207.5h-28.3l7.8-207.5zm0 0" fill="#e0cfaf"/>
  <path d="M296.6 194.1h-81.2l-7.8-34 48.6-10 48.2 10zm0 0" fill="#fff5d7"/>
  <path d="M235.9 194.1h-20.5l-7.8-34H233zm0 0" fill="#e0cfaf"/>
  <path d="M317.4 435.7L263.1 446l-68.5-10.4 3.5-34H314zm0 0" fill="#fff5d7"/>
  <path d="M235.9 401.6l-3.5 34h-37.8l3.5-34zm0 0" fill="#e0cfaf"/>
  <path d="M456.4 401.6l-48.3 17-48.4-17 7.8-207.5 40.6-17 40.6 17zm0 0" fill="#fff5d7"/>
  <path d="M388 194.1v207.5h-28.3l7.8-207.5zm0 0" fill="#e0cfaf"/>
  <path d="M448.7 194.1h-81.2l-7.8-34 54.3-15.8 42.4 15.8zm0 0" fill="#fff5d7"/>
  <path d="M388 194.1h-20.5l-7.8-34H385zm0 0" fill="#e0cfaf"/>
  <path d="M469.5 435.7L405 448l-58.3-12.4 3.5-34H466zm0 0" fill="#fff5d7"/>
  <path d="M388 401.6l-3.6 34h-37.7l3.5-34zm0 0" fill="#e0cfaf"/>
  <path d="M490.7 477.7H21.3v-30.1a12 12 0 0111.9-12h445.6a12 12 0 0112 12zm0 0" fill="#e0cfaf"/>
  <path d="M498.7 510.7H13.3c-7.4 0-13.3-6-13.3-13.3V478c0-7.3 6-13.2 13.3-13.2h485.4c7.4 0 13.3 5.9 13.3 13.2v19.4c0 7.3-6 13.3-13.3 13.3zm0 0" fill="#fff5d7"/>
  <g fill="#e0cfaf">
    <path d="M145 208.3H63.3v-14.2h81.2zm0 0M297.1 208.3h-81.7v-14.2h81.2zm0 0M449.2 208.3h-81.7v-14.2h81.2zm0 0M152.3 401.6H66.5V388h85.3zm0 0M304.4 401.6h-85.8V388h85.2zm0 0M456.4 401.6h-85.7V388h85.2zm0 0M47 109.6l181.6-73.5 93.9 12.3 143.2 92.9V160h-419v-18.8zm0 0"/>
  </g>
  <path d="M479.2 146.8L256.2 55l-223 91.8a12.6 12.6 0 01-16.5-6.8L6.4 115c-2.6-6.5.5-13.8 6.9-16.5L247 2.3a24.1 24.1 0 0118.3 0l233.8 96.2c6.4 2.7 9.5 10 6.8 16.5l-10.3 25c-2.6 6.4-10 9.5-16.4 6.8zm0 0" fill="#fff5d7"/>
  <path d="M295.6 110.6a39.4 39.4 0 11-78.8 0 39.4 39.4 0 0178.8 0zm0 0" fill="#fff5d7"/>
  <path d="M285.8 110.6a29.6 29.6 0 11-59.2 0 29.6 29.6 0 0159.2 0zm0 0" fill="#3e4c56"/>
</svg>