<svg viewBox="0 0 319.6 319.6" xmlns="http://www.w3.org/2000/svg"><path d="M157 72c-53-5-94-41-130 22-14 27-25 72-27 108-4 89 46 64 93 20 29-27 104-27 134 0 46 45 96 69 92-20-1-36-12-81-27-108-35-63-76-26-130-22h-5z" fill="#4A566E"/><path d="M82 99c9 0 16 7 16 16v6h6c9 0 16 7 16 16s-7 17-16 17h-6v6c0 9-7 16-16 16s-17-8-17-16v-6h-5c-9 0-17-8-17-16 0-10 8-17 17-17h5v-5c0-10 8-17 17-17z" fill="#fff"/><path d="M247 137c0-8 7-14 15-14s14 6 14 14-6 15-14 15-15-7-15-15zm-15-44c8 0 15 7 15 15s-7 14-15 14-14-6-14-14 6-15 14-15zm-44 44c0-8 7-14 15-14s14 6 14 14-6 15-14 15-15-7-15-15zm44 15c8 0 15 7 15 15s-7 14-15 14-14-6-14-14 6-15 14-15z" fill="#3ABFC8"/></svg>