<svg xmlns="http://www.w3.org/2000/svg" height="512" width="512"><path d="M347 135H165c-8 0-15-6-15-15V66c0-28 23-51 52-51h108c29 0 52 23 52 51v54c0 9-7 15-15 15zm-167-20h152V66c0-11-10-21-22-21H202c-12 0-22 10-22 21z" fill="#575a65"/><path d="M310 15h-54v30h54c12 0 22 10 22 21v49h-76v20h91c8 0 15-6 15-15V66c0-28-23-51-52-51z" fill="#464b52"/><path d="M436 497l-180-27-180 27c-42 0-76-34-76-76V182c0-42 34-77 76-77l180 13 180-13c42 0 76 35 76 77v239c0 42-34 76-76 76z" fill="#464b52"/><path d="M436 105l-180 10v372l180 10c42 0 76-34 76-76V182c0-42-34-77-76-77z" fill="#292b2f"/><path d="M436 497H76V105h360z" fill="#f3f5fc"/><path d="M256 105h180v392H256z" fill="#e9ecf4"/><path d="M286 407h-60c-8 0-15-7-15-15v-46h-45c-9 0-15-6-15-15v-60c0-8 6-15 15-15h45v-45c0-8 7-15 15-15h60c8 0 15 7 15 15v45h45c9 0 15 7 15 15v60c0 9-6 15-15 15h-45v46c0 8-7 15-15 15z" fill="#d73424"/><path d="M346 256h-45v-45c0-8-7-15-15-15h-30v211h30c8 0 15-7 15-15v-46h45c9 0 15-6 15-15v-60c0-8-6-15-15-15z" fill="#b3113b"/></svg>