<svg xmlns="http://www.w3.org/2000/svg" viewBox="0 0 512 512">
<circle cx="256" cy="256" r="256" fill="#27d1cf"/>

<path d="M499.34 153.41v182.31a254.21 254.21 0 01-28.54 59.57C425.17 465.55 346.01 512 256 512S86.83 465.55 41.2 395.3a255.72 255.72 0 01-28.54-59.6V153.41c0-7.69 6.24-13.93 13.93-13.93H485.4c7.7 0 13.93 6.24 13.93 13.93z" fill="#d6c1a8"/>
<g fill="#e8d4bb">
    <path d="M403.32 17.13v448.25a255.1 255.1 0 01-113.24 44.37A257.96 257.96 0 01256 512a258.14 258.14 0 01-60.72-7.25 253.07 253.07 0 01-59.14-22.49 258.22 258.22 0 01-27.47-16.88V17.13C108.67 7.67 116.34 0 125.8 0h260.4c9.45 0 17.12 7.67 17.12 17.13z"/>
    <path d="M415.57 252.95v-83.5a8.59 8.59 0 018.59-8.58h50.99a8.59 8.59 0 018.59 8.59v83.49a8.59 8.59 0 01-8.6 8.59h-50.98a8.59 8.59 0 01-8.59-8.6z" 
    fill="#e8d4bb"/>
    <path d="M483.74 303.22v69.8a250.6 250.6 0 01-12.94 22.28h-46.64a8.59 8.59 0 01-8.59-8.6v-83.48a8.59 8.59 0 018.59-8.59h50.99a8.59 8.59 0 018.59 8.59z"/>
    <path d="M28.26 252.95v-83.5a8.59 8.59 0 018.59-8.58h50.99a8.59 8.59 0 018.59 8.59v83.49a8.59 8.59 0 01-8.6 8.59H36.86a8.59 8.59 0 01-8.59-8.6z"/>
    <path d="M96.43 303.22v83.48a8.59 8.59 0 01-8.6 8.6H41.2a255.7 255.7 0 01-12.93-22.27v-69.81a8.59 8.59 0 018.59-8.6h50.99a8.59 8.59 0 018.59 8.6z"/>
</g>
<g fill="#d6c1a8">
    <path d="M136.15 252.95v-83.5a8.59 8.59 0 018.58-8.58h51a8.59 8.59 0 018.58 8.59v83.49a8.59 8.59 0 01-8.59 8.59h-50.99a8.59 8.59 0 01-8.58-8.6z"/>
    <path d="M221.92 252.95v-83.5a8.59 8.59 0 018.58-8.58h51a8.59 8.59 0 018.58 8.59v83.49a8.59 8.59 0 01-8.59 8.59H230.5a8.59 8.59 0 01-8.58-8.6z"/>
    <path d="M307.69 252.95v-83.5a8.59 8.59 0 018.59-8.58h50.99a8.59 8.59 0 018.58 8.59v83.49a8.59 8.59 0 01-8.59 8.59h-50.98a8.59 8.59 0 01-8.6-8.6z"/>
    <path d="M136.15 386.7v-83.48a8.59 8.59 0 018.58-8.6h51a8.59 8.59 0 018.58 8.6v83.48a8.59 8.59 0 01-8.59 8.6h-50.99a8.59 8.59 0 01-8.58-8.6z"/>
    <path d="M221.92 386.7v-83.48a8.59 8.59 0 018.58-8.6h51a8.59 8.59 0 018.58 8.6v83.48a8.59 8.59 0 01-8.59 8.6H230.5a8.59 8.59 0 01-8.58-8.6z"/>
    <path d="M307.69 386.7v-83.48a8.59 8.59 0 018.59-8.6h50.99a8.59 8.59 0 018.58 8.6v83.48a8.59 8.59 0 01-8.59 8.6h-50.98a8.59 8.59 0 01-8.6-8.6z"/>
    <path d="M204.31 436.98v69.8a251.22 251.22 0 01-22.8-5.79 253.07 253.07 0 01-45.37-18.73v-45.29a8.59 8.59 0 018.6-8.59h50.98a8.6 8.6 0 018.6 8.6z"/>
    <path d="M290.08 436.98v72.77A257.96 257.96 0 01256 512a258.14 258.14 0 01-34.08-2.26v-72.77a8.59 8.59 0 018.59-8.59h50.98a8.6 8.6 0 018.59 8.6z"/>
    <path d="M375.85 436.98v45.28a260.36 260.36 0 01-16.2 7.89 254.65 254.65 0 01-51.97 16.63v-69.8a8.59 8.59 0 018.6-8.6h50.98a8.59 8.59 0 018.6 8.6z"/>
</g>
<g fill="#4a5370">
    <path d="M145.18 169.9h50.11v52.74h-50.11zM145.18 233.47h50.11v19.03h-50.11z"/>
    <path d="M230.94 169.9h50.11v52.74h-50.11zM230.94 233.47h50.11v19.03h-50.11z"/>
    <path d="M316.72 169.9h50.11v52.74h-50.11zM316.72 233.47h50.11v19.03h-50.11z"/>
    <path d="M424.6 169.9h50.11v52.74H424.6zM424.6 233.47h50.11v19.03H424.6z"/>
    <path d="M424.6 303.66h50.11v52.74H424.6zM424.6 367.23h50.11v19.03H424.6z"/>
    <path d="M37.29 169.9H87.4v52.74H37.29zM37.29 233.47H87.4v19.03H37.29z"/>
    <path d="M37.29 303.66H87.4v52.74H37.29zM37.29 367.23H87.4v19.03H37.29z"/>
    <path d="M145.18 303.66h50.11v52.74h-50.11zM145.18 367.23h50.11v19.03h-50.11z"/>
    <path d="M230.94 303.66h50.11v52.74h-50.11zM230.94 367.23h50.11v19.03h-50.11z"/>
    <path d="M316.72 303.66h50.11v52.74h-50.11zM316.72 367.23h50.11v19.03h-50.11z"/>
    <path d="M195.28 437.41v52.74h-42.9a250.08 250.08 0 01-7.2-3.33v-49.4h50.1zM195.28 500.99v3.76a251.22 251.22 0 01-13.77-3.76h13.78z"/>
    <path d="M230.94 437.41h50.11v68.8h-50.11z"/>
    <path d="M281.05 500.99v9.8a257.58 257.58 0 01-50.1 0v-9.8h50.1z"/>
    <path d="M366.82 437.41v49.42a280.35 280.35 0 01-7.17 3.32H316.7v-52.74h50.12zM330.5 500.99a243.88 243.88 0 01-13.79 3.76v-3.76h13.8z"/>
</g>
<g fill="#ff6954">
    <path d="M174.93 108.7h-15.67v21.35c0 2.52-3.07 3.78-6.15 3.78-3.07 0-6.14-1.26-6.14-3.78v-50.1c0-2.6 3.07-3.7 6.14-3.7s6.15 1.1 6.15 3.7v19.3h15.67v-19.3c0-2.6 3.07-3.7 6.14-3.7 3.08 0 6.15 1.1 6.15 3.7v50.1c0 2.52-3.07 3.78-6.15 3.78-3.07 0-6.14-1.26-6.14-3.78V108.7zM199.04 115.71V94.84c0-13.55 8.42-18.59 19.3-18.59 10.86 0 19.37 5.04 19.37 18.6v20.86c0 13.55-8.5 18.6-19.38 18.6-10.87 0-19.3-5.05-19.3-18.6zm26.38-20.87c0-5.43-2.68-7.88-7.09-7.88-4.4 0-7 2.45-7 7.88v20.87c0 5.44 2.6 7.88 7 7.88 4.41 0 7.1-2.44 7.1-7.88V94.84zM282.77 76.25c2.6 0 3.7 2.84 3.7 5.44 0 3-1.34 5.59-3.7 5.59H271.9v42.77c0 2.52-3.07 3.78-6.15 3.78-3.07 0-6.14-1.26-6.14-3.78V87.28h-10.87c-2.36 0-3.7-2.6-3.7-5.6 0-2.6 1.1-5.43 3.7-5.43h34.03zM307.58 100.28h11.81c2.37 0 3.7 2.28 3.7 4.8 0 2.13-1.1 4.65-3.7 4.65h-11.81v13.39h21.1c2.37 0 3.71 2.52 3.71 5.43 0 2.52-1.1 5.28-3.7 5.28h-28.04c-2.68 0-5.36-1.26-5.36-3.78V80.03c0-2.52 2.68-3.78 5.36-3.78h28.04c2.6 0 3.7 2.76 3.7 5.28 0 2.92-1.34 5.44-3.7 5.44h-21.11v13.3zM347.04 133.83c-2.68 0-5.35-1.26-5.35-3.78v-50.1c0-2.6 3.07-3.7 6.14-3.7s6.14 1.1 6.14 3.7v43.17h17.96c2.37 0 3.55 2.67 3.55 5.35 0 2.68-1.19 5.36-3.55 5.36h-24.89z"/>
</g>
<g fill="#f48944">
    <path d="M349.8 19.17l6.25 12.66 13.97 2.03-10.1 9.86 2.38 13.92-12.5-6.57-12.5 6.57 2.39-13.92-10.12-9.86 13.98-2.03zM302.9 19.17l6.25 12.66 13.97 2.03-10.1 9.86 2.38 13.92-12.5-6.57-12.5 6.57 2.39-13.92-10.12-9.86 13.98-2.03zM256 19.17l6.25 12.66 13.97 2.03-10.11 9.86 2.39 13.92-12.5-6.57-12.5 6.57 2.39-13.92-10.12-9.86 13.98-2.03zM209.1 19.17l6.25 12.66 13.97 2.03-10.11 9.86 2.39 13.92-12.5-6.57-12.5 6.57 2.39-13.92-10.12-9.86 13.98-2.03zM162.2 19.17l6.25 12.66 13.97 2.03-10.11 9.86 2.39 13.92-12.5-6.57-12.5 6.57 2.39-13.92-10.12-9.86 13.98-2.03z"/>
</g>
</svg>