<svg xmlns="http://www.w3.org/2000/svg" viewBox="0 0 64 64">
  <path d="M8 5a5 5 0 015 5v5H8A5 5 0 018 5z" fill="#f68820"/>
  <path d="M45 54v-7.5a2 2 0 00-2-2 2 2 0 002-2v-28a2 2 0 00-2-2 2 2 0 002-2V10a5 5 0 00-5-5H8a5 5 0 015 5v10.5c0 1.1 1 2 2 2a2 2 0 00-2 2V54a5 5 0 005 5h32a5 5 0 01-5-5z" fill="#fbbe18"/>
  <path d="M26 14.5h12a1 1 0 000-2H26a1 1 0 000 2zM20 19.5h18a1 1 0 000-2H20a1 1 0 000 2zM20 24.5h18a1 1 0 000-2H20a1 1 0 000 2zM20 29.5h18a1 1 0 000-2H20a1 1 0 000 2zM20 34.5h18a1 1 0 000-2H20a1 1 0 000 2zM20 39.5h18a1 1 0 000-2H20a1 1 0 000 2zM20 44.5h8.5a1 1 0 000-2H20a1 1 0 000 2z" fill="#f68820"/>
  <path d="M18 49a2.5 2.5 0 100 5h7.5v-5z" fill="#bf6b1e"/>
  <path d="M18 49a5 5 0 010 10h32a5 5 0 000-10z" fill="#f68820"/>
  <path d="M35 39.5h6a5 5 0 003.5-1.5l15-15c2-2 2-5 0-7l-1-1a5 5 0 00-7 0l-15 15a5 5 0 00-1.5 3.6v5.9z" fill="#b3b4b6"/>
  <path d="M35 39.5h6a5 5 0 003.5-1.5l15-15c2-2 2-5 0-7l-.5-.5z" fill="gray"/>
  <path d="M48 26.5v-8l3.5-3.5c2-2 5.1-2 7 0l1 1c2 2 2 5 0 7L56 26.5z" fill="#55525b"/>
  <path d="M48 26.5l11-11 .5.5c2 2 2 5 0 7L56 26.5z" fill="#353744"/>
  <path d="M31 44l-.3-.1a.5.5 0 010-.8l28-28a.5.5 0 01.7.8l-28 28-.4.1z" fill="#dbdee3"/>
</svg>