<svg height="512" width="512" xmlns="http://www.w3.org/2000/svg"><circle cx="256" cy="256" fill="#fd9827" r="256"/><path d="M512 256c0-30-5-58-14-85L392 66s-72 20-83 50l-46-44-27 35-36-35-23 35-38-35h-32l34 121c0 19-12 49-12 49l33 33 3 177 58 58 33 2c141 0 256-115 256-256z" fill="#ea7b0c"/><path d="M152 247h66v87h-66z" fill="#ffe780"/><path d="M185 247h33v87h-33z" fill="#fbbe2c"/><path d="M185 458c-19 0-33-15-33-33V305h66v120c0 18-15 33-33 33z" fill="#605553"/><path d="M326 247h66v87h-66z" fill="#ffe780"/><path d="M359 247h33v87h-33z" fill="#fbbe2c"/><path d="M359 458c-18 0-33-15-33-33V305h66v120c0 18-15 33-33 33z" fill="#605553"/><path d="M392 305v120c0 18-15 33-33 33V305z" fill="#4c403f"/><path d="M392 252h-56c-20 0-36-16-36-36v-71c0-44 35-79 79-79h13zM230 72v84a15 15 0 01-30 0V72h-31v84a15 15 0 01-30 0V72h-32v121c0 35 29 64 64 64h27c36 0 65-29 65-64V72z" fill="#eef9ff"/><path d="M263 72v121a65 65 0 01-65 64h-13V72h15v84c0 8 7 15 15 15 9 0 15-7 15-15V72z" fill="#d2ebff"/><path d="M218 305v120c0 18-15 33-33 33V305z" fill="#4c403f"/><path d="M392 66v186h-33V68l20-2z" fill="#d2ebff"/></svg>