<svg xmlns="http://www.w3.org/2000/svg" viewBox="0 0 480 480"><path d="M440 472H40c-9 0-16-7-16-16V256h432v200c0 9-7 16-16 16z" fill="#dedede"/><path d="M136 208v48h320v-64H123l13 16z" fill="#666"/><path fill="#dedede" d="M280 256h-64l48-64h64l-48 64zM408 256h-64l48-64h64l-48 64zM136 192l-6 8 6 8v48h16l48-64h-64z"/><path d="M130 200l-7-8-12-15-4-5-35-44H24v128h112v-48l-6-8z" fill="#666"/><path fill="#dedede" d="M48 216h16v16H48v-16zM48 152h16v16H48v-16zM96 216h16v16H96v-16z"/><path fill="#c7c7c7" d="M64 312h352v16H64v-16zM416 376H64v16h104v48h16v-48h112v48h16v-48h104v-16z"/><path d="M111 177L456 69 437 8 55 128h17l39 49z" fill="#dedede"/><path fill="#666" d="M288 122l-61 19 27-76 61-19-27 76zM410 83l-61 20 27-76 61-19-27 75zM111 177l55-17 27-75-62 19-24 68 4 5z"/><path d="M48 216h16v16H48v-16zM48 152h16v16H48v-16zM96 216h16v16H96v-16zM64 312h352v16H64v-16zM64 392h104v48h16v-48h112v48h16v-48h104v-16H64v16z"/></svg>