<svg xmlns="http://www.w3.org/2000/svg" viewBox="0 0 512 512" fill="#888">
  <path d="M312 200c-6-7-12-12-20-17a119 119 0 00-149 17L35 308a119 119 0 00169 169l89-89a9 9 0 00-6-15h-3c-19 0-37-3-55-10-3-2-7-1-9 1l-64 65a51 51 0 11-73-73l109-108c20-20 53-20 72 0 14 12 35 12 48 0 6-6 10-14 10-22 1-10-3-19-10-26zM477 35c-47-47-122-47-169 0l-89 89a9 9 0 006 15h3c19 0 37 4 55 11 3 1 6 0 9-2l64-64a51 51 0 1173 72l-81 80v1l-28 28a51 51 0 01-73 0 35 35 0 00-48 0 34 34 0 000 48c10 10 22 18 35 24l5 2 5 2 6 2 5 1a138 138 0 0023 3h12l6-1h8l3-1 5-1h1c21-5 40-16 55-31l109-109c47-47 47-122 0-169z"/>
</svg>